<svg xmlns="http://www.w3.org/2000/svg" viewBox="0 0 900 600"><defs><linearGradient id="a" x2="1" y2="1"><stop stop-color="#17231f"/><stop offset="1" stop-color="#060908"/></linearGradient><radialGradient id="b"><stop stop-color="#82f4ca" stop-opacity=".38"/><stop offset="1" stop-opacity="0"/></radialGradient></defs><rect width="900" height="600" fill="url(#a)"/><ellipse cx="620" cy="290" rx="340" ry="260" fill="url(#b)"/><path d="M0 110 110 38l102 67 94-48 112 87 96-66 94 51 126-93 166 104V0H0Z" fill="#222c29"/><g fill="#0b100f" stroke="#66dcb2" stroke-width="5"><rect x="180" y="190" width="210" height="130" rx="10"/><rect x="510" y="165" width="210" height="130" rx="10"/></g><g fill="#273934"><path d="M245 330h80v65h-80zM195 395h180l35 36H160z"/><path d="M575 305h80v65h-80zM525 370h180l35 36H490z"/></g><path d="M120 468h660" stroke="#79f1c3" stroke-width="6" opacity=".7"/></svg>
